<?xml version="1.0" encoding="UTF-8" standalone="no"?>
<!--?xml version="1.0" standalone="no"?-->

<svg
   xmlns:dc="http://purl.org/dc/elements/1.1/"
   xmlns:cc="http://creativecommons.org/ns#"
   xmlns:rdf="http://www.w3.org/1999/02/22-rdf-syntax-ns#"
   xmlns:svg="http://www.w3.org/2000/svg"
   xmlns="http://www.w3.org/2000/svg"
   xmlns:sodipodi="http://sodipodi.sourceforge.net/DTD/sodipodi-0.dtd"
   xmlns:inkscape="http://www.inkscape.org/namespaces/inkscape"
   version="1.0"
   width="300.000000pt"
   height="300.000000pt"
   viewBox="0 0 300.000000 300.000000"
   preserveAspectRatio="xMidYMid meet"
   id="svg8"
   sodipodi:docname="03xml_refresh.svg"
   inkscape:version="0.92.2 (5c3e80d, 2017-08-06)">
  <metadata
     id="metadata14">
    <rdf:RDF>
      <cc:Work
         rdf:about="">
        <dc:format>image/svg+xml</dc:format>
        <dc:type
           rdf:resource="http://purl.org/dc/dcmitype/StillImage" />
      </cc:Work>
    </rdf:RDF>
  </metadata>
  <defs
     id="defs12" />
  <sodipodi:namedview
     pagecolor="#ffffff"
     bordercolor="#666666"
     borderopacity="1"
     objecttolerance="10"
     gridtolerance="10"
     guidetolerance="10"
     inkscape:pageopacity="0"
     inkscape:pageshadow="2"
     inkscape:window-width="1600"
     inkscape:window-height="838"
     id="namedview10"
     showgrid="false"
     inkscape:zoom="0.59"
     inkscape:cx="200"
     inkscape:cy="200"
     inkscape:window-x="-8"
     inkscape:window-y="-8"
     inkscape:window-maximized="1"
     inkscape:current-layer="svg8" />
  <g
     transform="translate(0.000000,300.000000) scale(0.100000,-0.100000)"
     fill="#343434"
     stroke="none"
     id="g4"
     style="fill:#008000">
    <path
       class="node"
       id="node1"
       d="M1986 2981 c-8 -13 -52 -149 -115 -361 -9 -29 1 -29 -173 -11 -123 13 -149 12 -268 -4 -240 -31 -438 -114 -595 -249 -157 -135 -263 -272 -351 -451 -51 -103 -62 -135 -48 -135 3 0 31 22 62 48 301 256 659 383 975 344 97 -12 225 -47 245 -66 15 -14 15 -11 -54 -256 -58 -208 -59 -210 -44 -210 6 0 53 20 103 44 118 56 221 104 272 126 22 10 76 34 120 55 44 20 99 45 123 56 23 10 61 28 85 38 23 11 91 42 152 69 60 27 114 56 119 65 9 14 -95 177 -509 796 -69 103 -87 122 -99 102z"
       style="fill:#008000" />
    <path
       class="node"
       id="node2"
       d="M1285 1346 c-27 -13 -75 -34 -105 -49 -30 -14 -170 -78 -310 -142 -517 -236 -496 -226 -492 -245 6 -26 585 -890 597 -890 7 0 17 19 23 43 6 23 20 74 32 112 12 39 30 97 40 130 35 118 34 116 82 108 24 -5 133 -8 243 -7 209 1 263 9 423 68 231 86 449 279 596 529 55 95 111 216 102 224 -2 2 -40 -24 -83 -58 -201 -160 -381 -253 -588 -304 -175 -43 -441 -29 -572 30 -37 17 -39 27 -18 99 8 28 26 94 40 146 14 52 33 121 42 153 10 35 13 61 7 66 -5 5 -30 0 -59 -13z"
       style="fill:#008000" />
  </g>
  <g
     transform="translate(0.000000,300.000000) scale(0.100000,-0.100000)"
     fill="#FFFFFF"
     stroke="none"
     id="g6" />
</svg>
